HIERARCHY
ROOT Hips
{
	OFFSET 0.000000 0.000000 0.000000 
	CHANNELS 6 Xposition Yposition Zposition Zrotation Xrotation Yrotation
	JOINT Spine
	{
		OFFSET -0.000000 8.285670 0.000000 
		CHANNELS 3 Zrotation Xrotation Yrotation
		JOINT Spine1
		{
			OFFSET 0.000004 20.336878 0.000000 
			CHANNELS 3 Zrotation Xrotation Yrotation
			JOINT Neck
			{
				OFFSET -0.000000 22.301800 0.000000 
				CHANNELS 3 Zrotation Xrotation Yrotation
				JOINT Head
				{
					OFFSET 0.000009 13.562846 1.750067 
					CHANNELS 3 Zrotation Xrotation Yrotation
					End Site
					{
						OFFSET -0.000000 20.208887 0.000000 
					}
				}
			}
			JOINT LeftShoulder
			{
				OFFSET 3.887530 15.503099 -0.416373 
				CHANNELS 3 Zrotation Xrotation Yrotation
				JOINT LeftArm
				{
					OFFSET 20.767099 0.000000 0.000000 
					CHANNELS 3 Zrotation Xrotation Yrotation
					JOINT LeftForeArm
					{
						OFFSET 26.608500 0.000000 0.000000 
						CHANNELS 3 Zrotation Xrotation Yrotation
						JOINT LeftHand
						{
							OFFSET 24.545389 0.000000 0.000006 
							CHANNELS 3 Zrotation Xrotation Yrotation
							End Site
							{
								OFFSET 15.156667 0.000000 0.000000 
							}
						}
					}
				}
			}
			JOINT RightShoulder
			{
				OFFSET -4.190880 15.503099 -0.416373 
				CHANNELS 3 Zrotation Xrotation Yrotation
				JOINT RightArm
				{
					OFFSET -20.767099 0.000000 0.000000 
					CHANNELS 3 Zrotation Xrotation Yrotation
					JOINT RightForeArm
					{
						OFFSET -26.608500 0.000000 0.000000 
						CHANNELS 3 Zrotation Xrotation Yrotation
						JOINT RightHand
						{
							OFFSET -27.532768 0.000010 0.000000 
							CHANNELS 3 Zrotation Xrotation Yrotation
							End Site
							{
								OFFSET -15.156667 0.000000 0.000000 
							}
						}
					}
				}
			}
		}
	}
	JOINT LeftUpLeg
	{
		OFFSET 10.104500 0.000000 0.000000 
		CHANNELS 3 Zrotation Xrotation Yrotation
		JOINT LeftLeg
		{
			OFFSET -0.000000 -50.743301 0.000000 
			CHANNELS 3 Zrotation Xrotation Yrotation
			JOINT LeftFoot
			{
				OFFSET -0.000000 -35.579197 0.000000 
				CHANNELS 3 Zrotation Xrotation Yrotation
				JOINT LeftToeBase
				{
					OFFSET -0.000000 -6.567910 15.156700 
					CHANNELS 3 Zrotation Xrotation Yrotation
					End Site
					{
						OFFSET -0.000000 0.000000 4.041778 
					}
				}
			}
		}
	}
	JOINT RightUpLeg
	{
		OFFSET -10.104500 0.000000 0.000000 
		CHANNELS 3 Zrotation Xrotation Yrotation
		JOINT RightLeg
		{
			OFFSET -0.000000 -50.743301 0.000000 
			CHANNELS 3 Zrotation Xrotation Yrotation
			JOINT RightFoot
			{
				OFFSET -0.000000 -35.579197 0.000000 
				CHANNELS 3 Zrotation Xrotation Yrotation
				JOINT RightToeBase
				{
					OFFSET -0.000000 -6.567910 15.156700 
					CHANNELS 3 Zrotation Xrotation Yrotation
					End Site
					{
						OFFSET -0.000000 0.000000 4.041778 
					}
				}
			}
		}
	}
}
MOTION
Frames: 15
Frame Time: 0.010000
-12.261400 94.329140 37.507198 -10.759076 -3.028787 96.931259 5.310607 -0.101600 -2.027817 0.328459 -10.030112 -0.649620 0.866328 3.191025 4.866604 -9.489859 -4.942379 5.985789 -7.755776 5.646857 1.324167 -75.287468 29.906185 -3.886207 0.340681 5.456005 -10.825447 -18.042625 4.699087 4.987196 1.142344 3.865100 -2.833087 69.692772 28.476416 6.037742 1.215022 -8.555320 -5.181167 28.401287 -9.101432 -2.401079 12.161343 -15.945279 14.498603 -13.644709 18.378828 21.226822 15.825437 -12.250932 37.514809 0.000000 0.000000 0.000000 -7.425588 -11.459991 -34.185177 9.449318 9.049472 -17.446430 -5.407054 -11.075880 -25.312967 0.000000 0.000000 0.000000 
-12.311622 94.301186 37.292774 -10.582768 -3.307858 97.791924 5.359406 -0.051187 -1.856639 0.268882 -9.937973 -0.597219 1.046224 3.234822 4.942589 -9.788496 -5.065961 6.108854 -7.719503 5.652792 1.412612 -75.262421 29.893242 -3.844656 0.344968 5.517875 -10.925263 -17.993963 4.762224 4.997786 1.143642 3.895072 -2.798168 69.653404 28.395962 6.048089 1.248205 -8.607866 -5.178051 28.401901 -9.143293 -2.364353 12.126852 -16.004843 14.612608 -13.671324 18.365572 21.043728 15.994335 -12.306616 37.744873 0.000000 0.000000 0.000000 -7.453971 -11.238523 -34.417088 9.430138 9.176908 -17.761925 -5.285732 -11.027889 -25.533386 0.000000 0.000000 0.000000 
-12.358680 94.273285 37.065510 -10.404775 -3.577764 98.641190 5.407032 -0.003548 -1.681068 0.206928 -9.844843 -0.543556 1.208790 3.284828 5.015790 -10.058229 -5.199334 6.222506 -7.685279 5.661386 1.502680 -75.230049 29.883389 -3.802891 0.345182 5.577776 -11.027358 -17.947956 4.823450 5.004961 1.146119 3.926654 -2.761292 69.607323 28.317261 6.061428 1.281927 -8.659568 -5.172130 28.399658 -9.184739 -2.329589 12.078597 -16.063169 14.705969 -13.691103 18.357071 20.833771 16.172092 -12.370543 37.967560 0.000000 0.000000 0.000000 -7.494198 -11.023989 -34.638920 9.405370 9.322342 -18.089561 -5.149887 -10.977561 -25.735498 0.000000 0.000000 0.000000 
-12.402746 94.245491 36.825890 -10.225698 -3.838651 99.479660 5.453119 0.041199 -1.501863 0.143205 -9.751237 -0.488789 1.349656 3.341331 5.086893 -10.292555 -5.342399 6.326237 -7.653331 5.672606 1.594067 -75.190514 29.876690 -3.760912 0.341222 5.635412 -11.131234 -17.905165 4.882257 5.009713 1.149693 3.960055 -2.722901 69.554985 28.240086 6.077516 1.316343 -8.710041 -5.163060 28.394058 -9.225633 -2.297694 12.016706 -16.120148 14.779641 -13.703722 18.354027 20.598209 16.357769 -12.442734 38.181049 0.000000 0.000000 0.000000 -7.545825 -10.816789 -34.849514 9.374223 9.485970 -18.430567 -4.999214 -10.924698 -25.918472 0.000000 0.000000 0.000000 
-12.443989 94.217911 36.574455 -10.046115 -4.090714 100.308029 5.497293 0.082915 -1.319832 0.078326 -9.657627 -0.432979 1.464197 3.404799 5.156590 -10.484612 -5.495228 6.419498 -7.623981 5.686470 1.686412 -75.143837 29.873220 -3.718891 0.333018 5.690484 -11.236285 -17.866037 4.938147 5.012909 1.154562 3.995262 -2.683542 69.496994 28.164692 6.096121 1.351188 -8.759224 -5.151179 28.384857 -9.265998 -2.269089 11.941495 -16.175745 14.834442 -13.709127 18.357073 20.338198 16.550449 -12.522956 38.384109 0.000000 0.000000 0.000000 -7.608479 -10.617072 -35.047138 9.336642 9.667601 -18.784998 -4.833962 -10.868849 -26.083235 0.000000 0.000000 0.000000 
-12.482561 94.190613 36.311802 -9.866524 -4.334187 101.127144 5.526867 0.127755 -1.136282 -0.000172 -9.548846 -0.377628 1.634237 3.409995 5.216475 -10.683063 -5.609778 6.514580 -7.562725 5.667611 1.807702 -75.121246 29.875546 -3.684632 0.326585 5.760938 -11.314482 -17.828133 5.009183 5.017938 1.189173 4.006269 -2.653461 69.409355 28.139675 6.107960 1.405521 -8.827801 -5.119180 28.374910 -9.323141 -2.232658 11.853321 -16.229990 14.871406 -13.707089 18.366772 20.054527 16.749224 -12.610701 38.575905 0.000000 0.000000 0.000000 -7.681543 -10.425224 -35.230717 9.291902 9.867184 -19.153975 -4.654357 -10.809620 -26.229309 0.000000 0.000000 0.000000 
-12.518606 94.163689 36.038578 -9.687362 -4.569356 101.937790 5.565594 0.163013 -0.951078 -0.117253 -9.453041 -0.325066 1.820178 3.480276 5.267431 -10.854583 -5.770949 6.597129 -7.474220 5.678074 1.915808 -75.097839 29.855738 -3.660806 0.316405 5.833344 -11.385282 -17.793770 5.081373 5.024628 1.260978 4.046214 -2.601270 69.302589 28.100986 6.119442 1.465304 -8.901034 -5.080095 28.361263 -9.384745 -2.196185 11.752711 -16.282806 14.891434 -13.697756 18.383493 19.747755 16.953678 -12.705199 38.756115 0.000000 0.000000 0.000000 -7.764495 -10.241546 -35.398666 9.239583 10.085093 -19.537651 -4.460036 -10.746890 -26.356947 0.000000 0.000000 0.000000 
-12.552255 94.137207 35.755497 -9.509029 -4.796637 102.740997 5.601289 0.195208 -0.764847 -0.182966 -9.364789 -0.267878 1.835719 3.574767 5.335666 -10.886793 -5.957480 6.656380 -7.451918 5.703063 2.007774 -75.032127 29.858912 -3.621282 0.296493 5.880205 -11.488057 -17.767195 5.127253 5.028003 1.272169 4.090758 -2.558781 69.229103 28.029858 6.143797 1.503215 -8.948388 -5.059475 28.340773 -9.425715 -2.178030 11.640230 -16.334370 14.895913 -13.680693 18.407797 19.418127 17.162754 -12.805882 38.924446 0.000000 0.000000 0.000000 -7.856491 -10.066288 -35.549667 9.179351 10.321014 -19.936464 -4.251548 -10.680107 -26.466751 0.000000 0.000000 0.000000 
-12.583625 94.111252 35.463299 -9.331856 -5.016424 103.537659 5.633613 0.224476 -0.578887 -0.247291 -9.278591 -0.210587 1.810140 3.678312 5.404798 -10.854853 -6.153986 6.703979 -7.432962 5.730228 2.099298 -74.960396 29.865496 -3.582333 0.273336 5.923715 -11.588743 -17.745264 5.169029 5.032423 1.284998 4.136996 -2.517038 69.152031 27.960846 6.169662 1.542286 -8.995760 -5.036732 28.316469 -9.467388 -2.162988 11.501933 -16.332142 14.881872 -13.654524 18.309734 19.048298 17.430738 -12.869296 39.080200 0.000000 0.000000 0.000000 -7.956772 -9.899805 -35.682262 9.110829 10.575144 -20.350571 -4.029017 -10.608973 -26.559076 0.000000 0.000000 0.000000 
-12.612827 94.085915 35.162781 -9.156173 -5.229168 104.328918 5.662200 0.250813 -0.394153 -0.309526 -9.194886 -0.153267 1.741450 3.792096 5.475133 -10.756129 -6.361313 6.739878 -7.417198 5.759602 2.189881 -74.883194 29.875154 -3.544455 0.247106 5.963998 -11.686340 -17.728033 5.206789 5.038314 1.299285 4.184922 -2.476422 69.072418 27.893869 6.196799 1.582502 -9.043746 -5.012421 28.288502 -9.510179 -2.150249 11.368694 -16.381666 14.858817 -13.623793 18.351055 18.672974 17.647543 -12.979406 39.225937 0.000000 0.000000 0.000000 -8.064445 -9.742494 -35.795132 9.033584 10.847586 -20.780281 -3.792586 -10.533263 -26.634403 0.000000 0.000000 0.000000 
-12.639938 94.061264 34.854771 -8.982128 -5.435372 105.115768 5.686819 0.274454 -0.210752 -0.369194 -9.114178 -0.096795 1.628408 3.916923 5.546929 -10.588963 -6.579786 6.764293 -7.404997 5.790873 2.279074 -74.800674 29.888105 -3.507626 0.218511 6.000833 -11.779961 -17.715586 5.240341 5.045720 1.315440 4.234347 -2.437377 68.990410 27.828838 6.224996 1.624195 -9.092663 -4.986806 28.257423 -9.554234 -2.139188 11.225941 -16.430344 14.823835 -13.585246 18.401112 18.275110 17.867020 -13.093071 39.360458 0.000000 0.000000 0.000000 -8.178539 -9.594619 -35.886902 8.947526 11.138371 -21.225475 -3.542893 -10.452659 -26.693575 0.000000 0.000000 0.000000 
-12.665031 94.037369 34.540138 -8.809927 -5.635584 105.899406 5.707188 0.295497 -0.021608 -0.426806 -9.036856 -0.049397 1.471259 4.053799 5.620275 -10.354272 -6.809937 6.777589 -7.396108 5.823990 2.366487 -74.713554 29.904091 -3.472331 0.187905 6.034325 -11.868621 -17.707867 5.269814 5.054834 1.333072 4.285178 -2.400160 68.906944 27.765574 6.253943 1.667627 -9.142908 -4.960085 28.223619 -9.599776 -2.129163 11.074704 -16.478439 14.777878 -13.539237 18.460165 17.854610 18.088774 -13.209308 39.484604 0.000000 0.000000 0.000000 -8.297974 -9.456518 -35.956322 8.852432 11.447534 -21.685732 -3.280230 -10.366871 -26.737679 0.000000 0.000000 0.000000 
-12.688169 94.014320 34.219765 -8.639697 -5.830348 106.680908 5.664814 0.313471 0.143498 -0.477703 -8.963449 0.015441 1.512383 4.204596 5.660068 -10.233470 -7.038032 6.798676 -7.313661 5.842557 2.490211 -74.701759 29.859686 -3.481115 0.170222 6.123800 -11.864034 -17.696226 5.354644 5.077087 1.427494 4.355489 -2.324167 68.735931 27.782127 6.257727 1.772932 -9.261724 -4.875935 28.198189 -9.702712 -2.080607 10.915816 -16.526142 14.722383 -13.485439 18.528297 17.411259 18.312103 -13.327085 39.598747 0.000000 0.000000 0.000000 -8.421581 -9.328625 -36.002239 8.748071 11.775095 -22.160833 -3.005145 -10.275687 -26.767626 0.000000 0.000000 0.000000 
-12.709390 93.992203 33.894562 -8.471535 -6.020251 107.461426 5.675605 0.329043 0.316026 -0.525490 -8.894297 0.070376 1.275661 4.371309 5.735115 -9.876292 -7.294839 6.791206 -7.311142 5.879110 2.572330 -74.606941 29.880032 -3.449762 0.137515 6.151202 -11.939540 -17.697685 5.376775 5.089686 1.449609 4.409443 -2.290500 68.650055 27.723074 6.287391 1.819938 -9.316321 -4.848186 28.161247 -9.752113 -2.068959 10.750143 -16.573698 14.658640 -13.423539 18.605537 16.944998 18.536224 -13.445635 39.703213 0.000000 0.000000 0.000000 -8.548190 -9.211330 -36.023563 8.634418 12.121189 -22.650110 -2.718028 -10.178986 -26.784700 0.000000 0.000000 0.000000 
-12.728710 93.971107 33.565464 -8.305449 -6.205909 108.242104 5.681772 0.342390 0.484385 -0.568348 -8.829668 0.123422 1.004378 4.553715 5.810492 -9.467558 -7.565293 6.774777 -7.312260 5.916774 2.651091 -74.508667 29.903149 -3.420263 0.104650 6.175105 -12.007882 -17.703398 5.394919 5.103642 1.473507 4.464213 -2.259481 68.564331 27.665752 6.317279 1.868329 -9.372604 -4.820644 28.123581 -9.802747 -2.055615 10.578841 -16.621344 14.587583 -13.353827 18.691759 16.455730 18.760757 -13.563701 39.798908 0.000000 0.000000 0.000000 -8.676406 -9.105016 -36.019390 8.511437 12.485609 -23.152735 -2.419798 -10.076402 -26.790451 0.000000 0.000000 0.000000 
